<?xml version="1.0" encoding="UTF-8" standalone="no"?>
<!-- Created with Inkscape (http://www.inkscape.org/) -->

<svg
   version="1.1"
   id="svg2"
   xml:space="preserve"
   width="644.67517"
   height="658.13251"
   viewBox="0 0 644.67517 658.13251"
   sodipodi:docname="MyLogoBoldFundo.svg"
   inkscape:version="1.1.1 (3bf5ae0d25, 2021-09-20)"
   xmlns:inkscape="http://www.inkscape.org/namespaces/inkscape"
   xmlns:sodipodi="http://sodipodi.sourceforge.net/DTD/sodipodi-0.dtd"
   xmlns="http://www.w3.org/2000/svg"
   xmlns:svg="http://www.w3.org/2000/svg"
   xmlns:rdf="http://www.w3.org/1999/02/22-rdf-syntax-ns#"
   xmlns:cc="http://creativecommons.org/ns#"
   xmlns:dc="http://purl.org/dc/elements/1.1/"><metadata
     id="metadata8"><rdf:RDF><cc:Work
         rdf:about=""><dc:format>image/svg+xml</dc:format><dc:type
           rdf:resource="http://purl.org/dc/dcmitype/StillImage" /></cc:Work></rdf:RDF></metadata><defs
     id="defs6"><linearGradient
       id="linearGradient18844"
       inkscape:swatch="gradient"><stop
         style="stop-color:#ffffff;stop-opacity:1;"
         offset="0"
         id="stop18840" /><stop
         style="stop-color:#ffffff;stop-opacity:0;"
         offset="1"
         id="stop18842" /></linearGradient><linearGradient
       id="linearGradient12084"
       inkscape:swatch="solid"><stop
         style="stop-color:#000000;stop-opacity:1;"
         offset="0"
         id="stop12082" /></linearGradient><clipPath
       clipPathUnits="userSpaceOnUse"
       id="clipPath28"><path
         d="M 0,1616.064 H 3295.698 V 0 H 0 Z"
         id="path26"
         inkscape:connector-curvature="0" /></clipPath><clipPath
       clipPathUnits="userSpaceOnUse"
       id="clipPath280"><path
         d="M 0,1616.064 H 3295.698 V 0 H 0 Z"
         id="path278"
         inkscape:connector-curvature="0" /></clipPath><clipPath
       clipPathUnits="userSpaceOnUse"
       id="clipPath294"><path
         d="M 0,1616.064 H 3295.698 V 0 H 0 Z"
         id="path292"
         inkscape:connector-curvature="0" /></clipPath><clipPath
       clipPathUnits="userSpaceOnUse"
       id="clipPath312"><path
         d="M 0,1616.064 H 3295.698 V 0 H 0 Z"
         id="path310"
         inkscape:connector-curvature="0" /></clipPath><clipPath
       clipPathUnits="userSpaceOnUse"
       id="clipPath384"><path
         d="M 0,1616.064 H 3295.698 V 0 H 0 Z"
         id="path382"
         inkscape:connector-curvature="0" /></clipPath><clipPath
       clipPathUnits="userSpaceOnUse"
       id="clipPath448"><path
         d="M 0,1616.064 H 3295.698 V 0 H 0 Z"
         id="path446"
         inkscape:connector-curvature="0" /></clipPath><clipPath
       clipPathUnits="userSpaceOnUse"
       id="clipPath468"><path
         d="M 0,1616.064 H 3295.698 V 0 H 0 Z"
         id="path466"
         inkscape:connector-curvature="0" /></clipPath><clipPath
       clipPathUnits="userSpaceOnUse"
       id="clipPath488"><path
         d="M 0,1616.064 H 3295.698 V 0 H 0 Z"
         id="path486"
         inkscape:connector-curvature="0" /></clipPath><clipPath
       clipPathUnits="userSpaceOnUse"
       id="clipPath564"><path
         d="M 0,1616.064 H 3295.698 V 0 H 0 Z"
         id="path562"
         inkscape:connector-curvature="0" /></clipPath><clipPath
       clipPathUnits="userSpaceOnUse"
       id="clipPath640"><path
         d="M 0,1616.064 H 3295.698 V 0 H 0 Z"
         id="path638"
         inkscape:connector-curvature="0" /></clipPath><clipPath
       clipPathUnits="userSpaceOnUse"
       id="clipPath752"><path
         d="M 0,1616.064 H 3295.698 V 0 H 0 Z"
         id="path750"
         inkscape:connector-curvature="0" /></clipPath></defs><sodipodi:namedview
     pagecolor="#ffffff"
     bordercolor="#666666"
     borderopacity="1"
     objecttolerance="10"
     gridtolerance="10"
     guidetolerance="10"
     inkscape:pageopacity="0"
     inkscape:pageshadow="2"
     inkscape:window-width="1366"
     inkscape:window-height="687"
     id="namedview4"
     showgrid="false"
     inkscape:zoom="0.52"
     inkscape:cx="404.80769"
     inkscape:cy="213.46154"
     inkscape:window-x="0"
     inkscape:window-y="768"
     inkscape:window-maximized="1"
     inkscape:current-layer="g10"
     inkscape:pagecheckerboard="0" /><g
     id="g10"
     inkscape:groupmode="layer"
     inkscape:label="material de ediç╞o"
     transform="matrix(1.3333333,0,0,-1.3333333,-783.17823,758.04623)">







<rect
   style="fill:#37000f;stroke:#ffffff;stroke-width:5.85;fill-opacity:1"
   id="rect1051"
   width="494.73483"
   height="502.53986"
   x="587.44128"
   y="-569.7467"
   transform="scale(1,-1)" /><rect
   style="fill:#918a6f;stroke:#ffffff;stroke-width:5.85"
   id="rect1053"
   width="59.397129"
   height="0"
   x="1041.8684"
   y="-569.7467"
   transform="scale(1,-1)"
   ry="0" /><g
   id="g306"
   transform="matrix(0.97986817,0,0,0.97986817,-5.5941042,-489.72354)"
   style="mix-blend-mode:normal;fill:#ffffff;fill-opacity:1;stroke:#ffffff;stroke-width:5.97019;stroke-linecap:butt;stroke-linejoin:miter;stroke-miterlimit:4;stroke-dasharray:none;stroke-opacity:1;paint-order:normal"
   inkscape:export-filename="/home/leandro/Downloads/MyLogo/MyLogoBold.png"
   inkscape:export-xdpi="6.2722926"
   inkscape:export-ydpi="6.2722926"><g
     id="g308"
     clip-path="url(#clipPath312)"
     style="fill:#ffffff;fill-opacity:1;stroke:#ffffff;stroke-width:5.97019;stroke-linecap:butt;stroke-linejoin:miter;stroke-miterlimit:4;stroke-dasharray:none;stroke-opacity:1;paint-order:normal"><g
       id="g314"
       transform="translate(769.6627,848.3759)"
       style="fill:#ffffff;fill-opacity:1;stroke:#ffffff;stroke-width:5.97019;stroke-linecap:butt;stroke-linejoin:miter;stroke-miterlimit:4;stroke-dasharray:none;stroke-opacity:1;paint-order:normal"><path
         d="m 0,0 c -15.174,35.389 -33.966,79.951 -48.824,115.47 -5.415,12.834 -10.736,25.706 -16.068,38.574 l 2.36,-1.513 c -12.47,-1.003 -25.213,5.206 -32.04,15.722 -12.388,18.301 -4.304,44.598 16.411,52.564 15.846,6.693 35.565,-0.003 44.136,-14.945 9.163,-14.76 5.314,-35.512 -8.325,-46.193 0,0 -1.101,-0.746 -1.101,-0.746 l 1.172,3.833 c 7.033,-17.505 13.943,-35.06 20.896,-52.597 34.664,-86.952 69.313,-176.408 103.362,-263.431 13.863,-35.092 27.858,-70.13 42.198,-105.031 l -2.141,-0.916 c -30.284,64.433 -64.42,136.613 -93.644,201.15 -1.17,2.334 -16.684,36.649 -17.402,37.543 -5.61,10.402 -15.088,9.742 -23.662,2.757 -3.445,-2.471 -6.977,-4.596 -10.718,-6.562 -3.876,-1.946 -7.749,-3.787 -12.231,-4.234 -4.908,0.046 -10.022,0.728 -14.695,2.47 -7.891,2.889 -15.334,7.412 -22.716,11.218 -9.215,5.359 -19.845,6.823 -29.819,2.567 -5.646,-2.36 -10.773,-6.049 -15.328,-10.181 0,0 -0.734,-0.585 -0.734,-0.585 -0.504,-0.367 -0.944,-0.824 -1.504,-1.112 -6.292,-4.103 -14.514,-3.39 -21.219,-0.742 0,0 0.233,0.553 0.233,0.553 6.45,-2.24 14.361,-2.628 20.167,1.413 1.92,1.355 3.517,3.163 5.334,4.666 7.329,6.382 16.599,11.265 26.592,11.118 7.497,0.102 14.449,-3.103 20.923,-6.52 10.356,-5.109 20.886,-11.407 32.771,-10.865 6.416,1.129 14.289,6.033 20.146,10.232 l -0.184,-0.15 c 1.357,1.197 2.643,2.098 4.081,2.983 12.935,7.821 23.351,2.219 28.943,-10.886 5.379,-11.15 10.548,-22.318 15.746,-33.506 30.003,-64.06 62.253,-137.441 91.04,-202.361 0,0 -2.142,-0.916 -2.142,-0.916 -13.716,35.15 -27.779,70.162 -41.972,105.121 -24.866,60.971 -50.396,122.22 -75.191,183.265 -16.799,41.521 -37.416,92.158 -54.018,133.552 0.554,0.354 2.646,1.812 3.228,2.192 10.324,8.461 14.108,24.981 6.423,37.666 -6.992,12.345 -23.255,18.015 -36.4,12.536 -13.346,-4.965 -21.582,-20.343 -18.219,-34.227 3.301,-15.27 17.73,-25.078 33.114,-23.488 12.188,-30.433 26.878,-68.124 38.948,-98.772 C -17.254,46.32 -4.39,13.024 0.556,0.226 Z"
         style="fill:#ffffff;fill-opacity:1;fill-rule:nonzero;stroke:#ffffff;stroke-width:5.97019;stroke-linecap:butt;stroke-linejoin:miter;stroke-miterlimit:4;stroke-dasharray:none;stroke-opacity:1;paint-order:normal"
         id="path316"
         inkscape:connector-curvature="0" /></g><g
       id="g318"
       transform="translate(809.7944,829.4731)"
       style="fill:#ffffff;fill-opacity:1;stroke:#ffffff;stroke-width:5.97019;stroke-linecap:butt;stroke-linejoin:miter;stroke-miterlimit:4;stroke-dasharray:none;stroke-opacity:1;paint-order:normal"><path
         d="m 0,0 c 22.255,-6.006 46.082,-5.049 67.458,2.585 16.303,5.949 33.577,11.01 51.135,12.133 8.796,0.454 17.795,0.256 26.502,-1.237 2.542,-0.317 6.163,-1.093 8.681,-1.738 2.483,-0.5 6.086,-1.618 8.523,-2.402 2.73,-0.801 5.504,-1.863 8.203,-2.683 5.366,-1.637 10.963,-2.645 16.576,-2.688 12.415,-0.116 21.286,4.936 29.031,14.417 11.236,13.159 21.114,27.494 30.585,41.962 5.402,14.167 5.674,30.686 -14.687,30.767 -5.409,-0.262 -10.679,-1.952 -15.937,-3.272 -5.4,-1.423 -11.027,-3.156 -16.372,-4.82 -27.913,-7.536 -57.225,-8.752 -85.946,-6.79 -17.114,1.35 -34.032,4.363 -51.082,5.887 -31.406,3.23 -70.903,7.253 -102.134,10.902 0,0.001 0.046,0.599 0.046,0.599 34.245,-1.301 68.439,-3.258 102.602,-5.941 11.345,-0.861 22.924,-1.955 34.131,-3.482 22.473,-2.491 45.15,-3.339 67.683,-1.443 12.562,1.179 25.184,2.939 37.256,6.613 4.136,1.16 8.409,2.295 12.587,3.297 5.8,1.214 11.666,2.991 17.666,2.786 21.797,-1.233 24.216,-18.874 16.258,-36.488 C 238.688,44.766 228.713,30.525 217.573,17.128 209.508,7.011 200.312,1.362 187.144,0.827 c -6.711,-0.282 -13.401,0.794 -19.848,2.59 -3.207,1.007 -7.116,2.006 -10.367,2.851 -5.426,1.254 -11.244,2.13 -16.769,2.759 -12.706,1.1 -25.568,0.562 -38.117,-1.786 C 90.813,5.265 79.913,1.876 68.872,-1.707 57.668,-5.325 45.813,-7.031 34.096,-6.882 22.415,-6.637 10.693,-4.796 -0.213,-0.561 -0.213,-0.561 0,0 0,0"
         style="fill:#ffffff;fill-opacity:1;fill-rule:nonzero;stroke:#ffffff;stroke-width:5.97019;stroke-linecap:butt;stroke-linejoin:miter;stroke-miterlimit:4;stroke-dasharray:none;stroke-opacity:1;paint-order:normal"
         id="path320"
         inkscape:connector-curvature="0" /></g><g
       id="g322"
       transform="translate(737.1141,906.0143)"
       style="fill:#ffffff;fill-opacity:1;stroke:#ffffff;stroke-width:5.97019;stroke-linecap:butt;stroke-linejoin:miter;stroke-miterlimit:4;stroke-dasharray:none;stroke-opacity:1;paint-order:normal"><path
         d="m 0,0 c -20.698,-16.086 -43.414,-29.774 -67.734,-39.659 -5.005,-2.158 -10.8,-3.91 -15.927,-5.628 -8.398,-2.907 -16.771,-6.954 -23.317,-12.969 -4.285,-4.033 -7.498,-9.15 -7.462,-15.049 0.132,-4.665 0.339,-9.368 0.162,-14.035 -0.222,-7.678 -0.789,-15.117 -2.053,-22.758 -0.449,-16.637 -0.325,-38.297 1.143,-56.533 0.776,-11.916 2.603,-23.688 4.514,-35.433 0.869,-7.304 0.918,-14.636 0.691,-21.947 -0.392,-18.683 -1.508,-67.946 -2.048,-86.088 -0.557,-10.304 7.584,-15.548 17.339,-15.262 4.594,-0.626 9.533,0.623 13.768,2.554 13.6,6.079 19.689,21.262 19.923,35.43 0.502,21.834 -2.054,43.761 -6.93,65.003 -0.597,2.545 -0.89,4.901 -1.241,7.435 -3.811,28.776 0.661,65.431 29.271,80.163 4.678,2.377 9.66,3.97 14.716,5.078 3.089,-0.037 5.872,-0.868 8.42,-1.865 2.592,-1.065 4.989,-2.226 7.353,-3.777 5.198,-4.084 10.625,-8.606 16.831,-10.982 4.363,-1.5 11.454,3.924 14.904,6.54 4.422,2.488 9.053,4.412 14.131,4.88 1.268,0.101 2.695,0.081 3.987,-0.265 6.837,-1.989 12.138,-6.67 17.342,-11.209 3.443,-5.383 9.652,-9.496 16.258,-8.64 0,0 0.091,-0.593 0.091,-0.593 -3.347,-0.592 -6.903,-0.171 -9.967,1.38 -2.81,1.235 -6.505,4.675 -7.608,6.485 -2.392,1.972 -4.933,3.846 -7.549,5.508 -3.841,2.292 -7.74,4.832 -12.262,4.299 -4.392,-0.565 -8.715,-2.576 -12.443,-4.876 -3.723,-3.093 -11.674,-9.51 -18.056,-7.539 -7.041,2.348 -12.822,6.961 -18.653,11.376 -2.447,1.329 -8.608,4.453 -12.532,4.267 0,0 0.522,0.055 0.522,0.055 -4.539,-1.138 -8.989,-2.571 -13.093,-4.717 -4.065,-2.196 -7.793,-4.957 -11.014,-8.248 -18.983,-19.693 -19.557,-55.719 -14.328,-81.186 2.378,-14.55 3.545,-29.225 3.876,-43.941 0.002,-9.814 0.496,-19.857 -2.542,-29.349 -2.78,-9.59 -9.387,-18.242 -18.522,-22.577 -4.339,-2.231 -10.446,-3.539 -14.604,-3.051 -3.097,-0.057 -6.33,0.214 -9.299,1.158 -0.883,0.25 -1.816,0.771 -2.683,1.103 -0.798,0.554 -1.748,0.954 -2.463,1.606 -4.227,3.215 -6.315,8.635 -6.159,13.855 -0.127,22.549 -0.38,49.451 -0.322,71.798 -0.177,11.789 0.745,23.691 -0.842,35.395 -2.096,11.818 -4.065,23.72 -5.004,35.669 -1.645,19.319 -1.997,38.594 -1.143,57.985 1.285,7.146 1.937,14.691 2.224,22.002 0.309,5.181 -0.108,10.359 0.154,15.536 0.516,6.79 4.634,13.025 9.507,17.368 8.082,7.134 18.091,11.35 28.303,14.281 1.705,0.53 6.16,1.877 7.915,2.42 5.109,1.625 10.628,3.83 15.579,5.81 17.096,7.221 33.517,16.1 49.191,26.054 3.146,1.993 6.268,4.035 9.322,6.161 z"
         style="fill:#ffffff;fill-opacity:1;fill-rule:nonzero;stroke:#ffffff;stroke-width:5.97019;stroke-linecap:butt;stroke-linejoin:miter;stroke-miterlimit:4;stroke-dasharray:none;stroke-opacity:1;paint-order:normal"
         id="path324"
         inkscape:connector-curvature="0" /></g><g
       id="g326"
       transform="translate(838.1649,755.0908)"
       style="fill:#ffffff;fill-opacity:1;stroke:#ffffff;stroke-width:5.97019;stroke-linecap:butt;stroke-linejoin:miter;stroke-miterlimit:4;stroke-dasharray:none;stroke-opacity:1;paint-order:normal"><path
         d="m 0,0 c 8.481,-3.872 17.766,-0.778 23.787,5.908 6.414,6.038 13.919,14.652 23.762,12.962 10e-4,0 0.275,-0.044 0.275,-0.044 l 0.238,-0.156 c 3.691,-2.41 5.535,-6.68 6.184,-10.91 0,0 0.218,-15.037 0.218,-15.037 l -0.083,0.541 c 1.442,-3.712 4.116,-7.924 7.966,-3.858 1.923,1.713 4.102,5.68 5.573,7.896 0.946,1.435 1.884,2.877 2.884,4.28 9.994,14.056 23.541,28.265 41.561,30.568 7.368,-0.451 14.991,-4.112 18.137,-11.192 0.497,-1.203 0.87,-2.649 0.93,-3.968 0.095,-4.055 0.775,-8.711 5.236,-9.824 2.98,-0.749 6.994,0.113 10.821,1.235 8.155,2.247 15.59,6.897 23.918,8.705 6.596,1.536 14.786,2.102 20.9,-2.163 2.25,-1.559 4.098,-3.725 5.257,-6.113 2.536,-5.607 3.687,-14.694 2.699,-19.264 -2.776,-33.361 -7.497,-83.36 -10.453,-117.133 0,0 -0.039,0.729 -0.039,0.729 0.806,-3.875 3.452,-14.547 7.186,-15.005 0,0 -0.178,-0.04 -0.178,-0.04 1.008,0.455 1.857,2.354 2.335,3.636 2.115,6.055 2.735,12.831 3.179,19.233 0.08,-1.141 -2.658,60.361 -2.615,60.052 -1.474,33.564 -3.381,72.004 -5.446,105.398 -0.173,4.446 -1.165,10.923 0.02,15.323 0.896,3.858 2.819,7.475 5.506,10.392 l 2.554,2.776 10.179,11.123 20.361,22.246 0.16,0.176 c 0.859,0.526 1.709,0.968 2.557,1.304 11.222,4.63 17.884,-4.665 19.091,-14.881 0,0 0.429,-4.744 0.429,-4.744 2.234,-38.034 2.689,-76.137 3.441,-114.214 0.668,-47.354 1.213,-98.991 0.739,-146.186 0,0 -0.6,-0.011 -0.6,-0.011 -3.833,84.103 -5.87,175.829 -8.194,260.156 -0.074,8.187 -2.7,20.428 -13.51,16.342 -0.609,-0.225 -1.289,-0.541 -1.757,-0.807 l 0.366,0.301 -20.985,-21.657 -10.493,-10.829 c -1.567,-1.659 -3.644,-3.616 -4.84,-5.496 -2.722,-4.02 -3.85,-8.812 -3.458,-13.676 l 0.376,-7.529 c 0.726,-14.631 1.664,-30.628 2.51,-45.161 2.026,-33.673 5.657,-86.336 8.033,-120.352 -0.294,-7.112 -0.855,-14.083 -3.093,-20.923 -1.363,-4.294 -4.927,-8.881 -9.991,-6.045 -5.534,3.556 -7.542,12.088 -9.051,18.086 2.386,34.302 6.635,84.125 9.313,117.954 0.455,2.706 0.375,5.569 -0.028,8.304 -0.215,2.292 -1.662,6.617 -2.101,7.697 -4.776,8.562 -16.801,5.77 -24.677,3.178 -10.255,-3.703 -30.404,-14.999 -38.73,-3.239 -2.278,3.367 -2.617,6.874 -2.7,10.595 -0.114,2.44 -1.47,4.406 -3.4,6.081 -2.674,2.28 -6.364,3.769 -9.913,4.034 l 0.434,0.011 c -0.576,-0.138 -2.854,-0.386 -3.469,-0.544 -1.067,-0.335 -2.356,-0.549 -3.413,-0.922 C 89.409,19.555 78.094,4.748 68.674,-9.323 c -6.031,-9.28 -14.127,-9.465 -17.806,1.767 0,-0.001 0.004,0.279 0.004,0.279 L 51.091,7.76 51.102,7.571 c -0.474,3.216 -1.787,6.794 -4.555,8.717 -10e-4,0 0.512,-0.199 0.512,-0.199 C 36.09,18.157 27.952,5.599 19.602,0.343 13.677,-3.318 5.884,-3.76 -0.29,-0.525 -0.29,-0.525 0,0 0,0"
         style="fill:#ffffff;fill-opacity:1;fill-rule:nonzero;stroke:#ffffff;stroke-width:5.97019;stroke-linecap:butt;stroke-linejoin:miter;stroke-miterlimit:4;stroke-dasharray:none;stroke-opacity:1;paint-order:normal"
         id="path328"
         inkscape:connector-curvature="0" /></g><g
       id="g330"
       transform="translate(662.6762,797.7088)"
       style="fill:#ffffff;fill-opacity:1;stroke:#ffffff;stroke-width:5.97019;stroke-linecap:butt;stroke-linejoin:miter;stroke-miterlimit:4;stroke-dasharray:none;stroke-opacity:1;paint-order:normal"><path
         d="m 0,0 c 0,-3.039 -2.463,-5.502 -5.502,-5.502 -3.039,0 -5.502,2.463 -5.502,5.502 0,3.039 2.463,5.502 5.502,5.502 C -2.463,5.502 0,3.039 0,0"
         style="fill:#ffffff;fill-opacity:1;fill-rule:nonzero;stroke:#ffffff;stroke-width:5.97019;stroke-linecap:butt;stroke-linejoin:miter;stroke-miterlimit:4;stroke-dasharray:none;stroke-opacity:1;paint-order:normal"
         id="path332"
         inkscape:connector-curvature="0" /></g><g
       id="g334"
       transform="translate(693.8094,787.1145)"
       style="fill:#ffffff;fill-opacity:1;stroke:#ffffff;stroke-width:5.97019;stroke-linecap:butt;stroke-linejoin:miter;stroke-miterlimit:4;stroke-dasharray:none;stroke-opacity:1;paint-order:normal"><path
         d="m 0,0 c -1.834,-1.834 -4.228,-2.414 -5.347,-1.295 -1.119,1.119 -0.54,3.513 1.295,5.347 1.834,1.835 4.228,2.414 5.347,1.295 C 2.414,4.228 1.834,1.834 0,0"
         style="fill:#ffffff;fill-opacity:1;fill-rule:nonzero;stroke:#ffffff;stroke-width:5.97019;stroke-linecap:butt;stroke-linejoin:miter;stroke-miterlimit:4;stroke-dasharray:none;stroke-opacity:1;paint-order:normal"
         id="path336"
         inkscape:connector-curvature="0" /></g><g
       id="g338"
       transform="translate(728.3979,804.9153)"
       style="fill:#ffffff;fill-opacity:1;stroke:#ffffff;stroke-width:5.97019;stroke-linecap:butt;stroke-linejoin:miter;stroke-miterlimit:4;stroke-dasharray:none;stroke-opacity:1;paint-order:normal"><path
         d="m 0,0 c 0,-2.097 -1.7,-3.798 -3.798,-3.798 -2.097,0 -3.798,1.701 -3.798,3.798 0,2.097 1.701,3.798 3.798,3.798 C -1.7,3.798 0,2.097 0,0"
         style="fill:#ffffff;fill-opacity:1;fill-rule:nonzero;stroke:#ffffff;stroke-width:5.97019;stroke-linecap:butt;stroke-linejoin:miter;stroke-miterlimit:4;stroke-dasharray:none;stroke-opacity:1;paint-order:normal"
         id="path340"
         inkscape:connector-curvature="0" /></g><g
       id="g342"
       transform="translate(762.9178,793.8347)"
       style="fill:#ffffff;fill-opacity:1;stroke:#ffffff;stroke-width:5.97019;stroke-linecap:butt;stroke-linejoin:miter;stroke-miterlimit:4;stroke-dasharray:none;stroke-opacity:1;paint-order:normal"><path
         d="M 0,0 C 3.217,-1.299 5.167,-3.982 4.355,-5.993 3.543,-8.004 0.277,-8.581 -2.94,-7.282 -6.157,-5.983 -8.107,-3.3 -7.295,-1.289 -6.483,0.722 -3.217,1.299 0,0"
         style="fill:#ffffff;fill-opacity:1;fill-rule:nonzero;stroke:#ffffff;stroke-width:5.97019;stroke-linecap:butt;stroke-linejoin:miter;stroke-miterlimit:4;stroke-dasharray:none;stroke-opacity:1;paint-order:normal"
         id="path344"
         inkscape:connector-curvature="0" /></g><g
       id="g346"
       transform="translate(1001.4972,788.6885)"
       style="fill:#ffffff;fill-opacity:1;stroke:#ffffff;stroke-width:5.97019;stroke-linecap:butt;stroke-linejoin:miter;stroke-miterlimit:4;stroke-dasharray:none;stroke-opacity:1;paint-order:normal"><path
         d="m 0,0 c 0,-3.039 2.463,-5.502 5.502,-5.502 3.039,0 5.502,2.463 5.502,5.502 0,3.039 -2.463,5.502 -5.502,5.502 C 2.463,5.502 0,3.039 0,0"
         style="fill:#ffffff;fill-opacity:1;fill-rule:nonzero;stroke:#ffffff;stroke-width:5.97019;stroke-linecap:butt;stroke-linejoin:miter;stroke-miterlimit:4;stroke-dasharray:none;stroke-opacity:1;paint-order:normal"
         id="path348"
         inkscape:connector-curvature="0" /></g><g
       id="g350"
       transform="translate(923.3685,795.0483)"
       style="fill:#ffffff;fill-opacity:1;stroke:#ffffff;stroke-width:5.97019;stroke-linecap:butt;stroke-linejoin:miter;stroke-miterlimit:4;stroke-dasharray:none;stroke-opacity:1;paint-order:normal"><path
         d="M 0,0 C 1.834,-1.834 4.228,-2.414 5.347,-1.295 6.466,-0.176 5.887,2.218 4.052,4.052 2.218,5.887 -0.176,6.466 -1.295,5.347 -2.414,4.228 -1.834,1.834 0,0"
         style="fill:#ffffff;fill-opacity:1;fill-rule:nonzero;stroke:#ffffff;stroke-width:5.97019;stroke-linecap:butt;stroke-linejoin:miter;stroke-miterlimit:4;stroke-dasharray:none;stroke-opacity:1;paint-order:normal"
         id="path352"
         inkscape:connector-curvature="0" /></g><g
       id="g354"
       transform="translate(888.7801,812.8491)"
       style="fill:#ffffff;fill-opacity:1;stroke:#ffffff;stroke-width:5.97019;stroke-linecap:butt;stroke-linejoin:miter;stroke-miterlimit:4;stroke-dasharray:none;stroke-opacity:1;paint-order:normal"><path
         d="m 0,0 c 0,-2.097 1.7,-3.798 3.798,-3.798 2.097,0 3.798,1.701 3.798,3.798 0,2.097 -1.701,3.798 -3.798,3.798 C 1.7,3.798 0,2.097 0,0"
         style="fill:#ffffff;fill-opacity:1;fill-rule:nonzero;stroke:#ffffff;stroke-width:5.97019;stroke-linecap:butt;stroke-linejoin:miter;stroke-miterlimit:4;stroke-dasharray:none;stroke-opacity:1;paint-order:normal"
         id="path356"
         inkscape:connector-curvature="0" /></g><g
       id="g358"
       transform="translate(854.2603,801.7685)"
       style="fill:#ffffff;fill-opacity:1;stroke:#ffffff;stroke-width:5.97019;stroke-linecap:butt;stroke-linejoin:miter;stroke-miterlimit:4;stroke-dasharray:none;stroke-opacity:1;paint-order:normal"><path
         d="M 0,0 C -3.217,-1.299 -5.167,-3.982 -4.355,-5.993 -3.543,-8.004 -0.277,-8.581 2.94,-7.282 6.157,-5.983 8.107,-3.3 7.295,-1.289 6.483,0.722 3.217,1.299 0,0"
         style="fill:#ffffff;fill-opacity:1;fill-rule:nonzero;stroke:#ffffff;stroke-width:5.97019;stroke-linecap:butt;stroke-linejoin:miter;stroke-miterlimit:4;stroke-dasharray:none;stroke-opacity:1;paint-order:normal"
         id="path360"
         inkscape:connector-curvature="0" /></g><g
       id="g362"
       transform="translate(947.3705,812.8491)"
       style="fill:#ffffff;fill-opacity:1;stroke:#ffffff;stroke-width:5.97019;stroke-linecap:butt;stroke-linejoin:miter;stroke-miterlimit:4;stroke-dasharray:none;stroke-opacity:1;paint-order:normal"><path
         d="m 0,0 c 0,-2.097 1.7,-3.798 3.798,-3.798 2.097,0 3.798,1.701 3.798,3.798 0,2.097 -1.701,3.798 -3.798,3.798 C 1.7,3.798 0,2.097 0,0"
         style="fill:#ffffff;fill-opacity:1;fill-rule:nonzero;stroke:#ffffff;stroke-width:5.97019;stroke-linecap:butt;stroke-linejoin:miter;stroke-miterlimit:4;stroke-dasharray:none;stroke-opacity:1;paint-order:normal"
         id="path364"
         inkscape:connector-curvature="0" /></g><g
       id="g366"
       transform="translate(966.9684,792.2398)"
       style="fill:#ffffff;fill-opacity:1;stroke:#ffffff;stroke-width:5.97019;stroke-linecap:butt;stroke-linejoin:miter;stroke-miterlimit:4;stroke-dasharray:none;stroke-opacity:1;paint-order:normal"><path
         d="M 0,0 C 1.13,-1.13 2.673,-1.42 3.445,-0.647 4.218,0.125 3.928,1.668 2.798,2.798 1.668,3.928 0.125,4.218 -0.647,3.445 -1.42,2.673 -1.13,1.13 0,0"
         style="fill:#ffffff;fill-opacity:1;fill-rule:nonzero;stroke:#ffffff;stroke-width:5.97019;stroke-linecap:butt;stroke-linejoin:miter;stroke-miterlimit:4;stroke-dasharray:none;stroke-opacity:1;paint-order:normal"
         id="path368"
         inkscape:connector-curvature="0" /></g></g></g></g></svg>
